# xmcd
#
# Track frame offsets: 
#        150
#        4422
#        21662
#        38840
#        55225
#        69237
#        85347
#        103705
#        118990
#        136400
#        151200
#        171100
#        188520
#        210252
#        228569
#        241911
#        262000
#
# Disc length: 3730 seconds
#
# Revision: 1
# Processed by: cddbd v1.5.2PL0 Copyright (c) Steve Scherf et al.
# Submitted via: ExactAudioCopy v0.99pb4
#
DISCID=e70e9011
DTITLE=Chris Brown - Chris Brown
DYEAR=2005
DGENRE=R&B
TTITLE0=Intro
TTITLE1=Run It!
TTITLE2=Yo (Excuse Me Miss)
TTITLE3=Young Love
TTITLE4=Gimme That
TTITLE5=Ya Man Ain't Me
TTITLE6=Winner
TTITLE7=Ain't No Way (You Won't Love Me)
TTITLE8=What's My Name
TTITLE9=Is This Love?
TTITLE10=Poppin'
TTITLE11=Just Fine
TTITLE12=Say Goodbye
TTITLE13=Run It! [Remix]
TTITLE14=So Glad
TTITLE15=Thank You
TTITLE16=Gimme That (Remix)
EXTD=
EXTT0=
EXTT1=
EXTT2=
EXTT3=
EXTT4=
EXTT5=
EXTT6=
EXTT7=
EXTT8=
EXTT9=
EXTT10=
EXTT11=
EXTT12=
EXTT13=
EXTT14=
EXTT15=
EXTT16=
PLAYORDER=
